<svg width="116" height="115" viewBox="0 0 116 115" fill="none" xmlns="http://www.w3.org/2000/svg">
<path d="M57.223 57.6556H92.1151L86.5324 102.862C80.8463 107.012 74.7208 110.072 68.1559 112.043C61.591 114.014 54.0957 115 45.6699 115C38.7948 115 32.5401 113.755 26.9057 111.265C21.3229 108.775 16.5156 105.326 12.4836 100.917C8.50333 96.4558 5.42766 91.1908 3.2566 85.1218C1.08553 79.0009 0 72.3354 0 65.1252C0 58.7968 0.697842 52.8056 2.09353 47.1516C3.48921 41.4456 5.4535 36.1806 7.98641 31.3566C10.571 26.5325 13.6725 22.2012 17.291 18.3626C20.9094 14.4723 24.9414 11.1784 29.3869 8.48105C33.8324 5.73184 38.6398 3.63103 43.809 2.17862C49.0298 0.726207 54.4834 0 60.1695 0C64.7184 0 68.8279 0.414973 72.498 1.24492C76.2198 2.023 79.5798 3.11231 82.5779 4.51285C85.5761 5.91339 88.2641 7.54736 90.6419 9.41474C93.0197 11.2821 95.1391 13.2533 97 15.3281L90.4868 23.7314C89.453 25.1838 88.1865 26.0916 86.6875 26.4547C85.1884 26.7659 83.6635 26.4028 82.1127 25.3654C80.6136 24.3798 79.1146 23.4202 77.6155 22.4865C76.1164 21.5009 74.4623 20.6191 72.6531 19.841C70.8956 19.0629 68.8796 18.4405 66.6051 17.9736C64.3307 17.5068 61.6685 17.2733 58.6187 17.2733C53.036 17.2733 47.9185 18.4145 43.2662 20.6969C38.6139 22.9274 34.6078 26.1175 31.2478 30.2672C27.8878 34.3651 25.2774 39.3189 23.4165 45.1286C21.5556 50.8863 20.6251 57.3185 20.6251 64.4249C20.6251 69.8196 21.2971 74.6437 22.6411 78.8972C24.0368 83.1507 25.9752 86.7558 28.4564 89.7125C30.9377 92.6692 33.9099 94.9515 37.3733 96.5595C40.8884 98.1157 44.7911 98.8938 49.0815 98.8938C53.3203 98.8938 57.0421 98.5047 60.247 97.7267C63.4519 96.8967 66.5276 95.7296 69.474 94.2253L72.0328 72.8281H59.6267C58.3344 72.8281 57.3523 72.491 56.6803 71.8166C56.06 71.0904 55.8015 70.2086 55.9049 69.1712L57.223 57.6556Z" fill="#333399"/>
<ellipse cx="106.5" cy="66" rx="9.5" ry="9" fill="#333399"/>
</svg>
